<mxfile host="app.diagrams.net" modified="2023-07-30T20:25:57.326Z" agent="Mozilla/5.0 (Windows NT 10.0; Win64; x64) AppleWebKit/537.36 (KHTML, like Gecko) Chrome/115.0.0.0 Safari/537.36" etag="ZMD4EGhGTdIMyUP-5Znx" version="21.6.6" type="github">
  <diagram name="Page-1" id="Vr-Ay_9J2vr7S0z5fENa">
    <mxGraphModel dx="1050" dy="573" grid="1" gridSize="10" guides="1" tooltips="1" connect="1" arrows="1" fold="1" page="1" pageScale="1" pageWidth="850" pageHeight="1400" math="0" shadow="0">
      <root>
        <mxCell id="0" />
        <mxCell id="1" parent="0" />
        <mxCell id="WWopHkoAth9X6F_zSNTi-8" value="" style="edgeStyle=orthogonalEdgeStyle;rounded=0;orthogonalLoop=1;jettySize=auto;html=1;fontSize=12;fillColor=default;strokeWidth=3;" parent="1" source="WWopHkoAth9X6F_zSNTi-1" target="WWopHkoAth9X6F_zSNTi-2" edge="1">
          <mxGeometry relative="1" as="geometry" />
        </mxCell>
        <mxCell id="WWopHkoAth9X6F_zSNTi-1" value="&lt;h1&gt;&lt;font style=&quot;font-size: 24px;&quot;&gt;Staff&lt;/font&gt;&lt;/h1&gt;" style="strokeWidth=3;html=1;shape=mxgraph.flowchart.start_1;whiteSpace=wrap;strokeColor=#66FFFF;" parent="1" vertex="1">
          <mxGeometry x="360" y="20" width="200" height="60" as="geometry" />
        </mxCell>
        <mxCell id="WWopHkoAth9X6F_zSNTi-9" value="" style="edgeStyle=orthogonalEdgeStyle;rounded=0;orthogonalLoop=1;jettySize=auto;html=1;fontSize=12;fillColor=default;strokeWidth=3;" parent="1" source="WWopHkoAth9X6F_zSNTi-2" target="WWopHkoAth9X6F_zSNTi-3" edge="1">
          <mxGeometry relative="1" as="geometry" />
        </mxCell>
        <mxCell id="WWopHkoAth9X6F_zSNTi-2" value="&lt;font style=&quot;font-size: 24px;&quot;&gt;&lt;b&gt;Login&lt;/b&gt;&lt;/font&gt;" style="rounded=1;whiteSpace=wrap;html=1;absoluteArcSize=1;arcSize=14;strokeWidth=3;strokeColor=#33FFFF;" parent="1" vertex="1">
          <mxGeometry x="360" y="130" width="200" height="60" as="geometry" />
        </mxCell>
        <mxCell id="WWopHkoAth9X6F_zSNTi-10" value="" style="edgeStyle=orthogonalEdgeStyle;rounded=0;orthogonalLoop=1;jettySize=auto;html=1;fontSize=12;fillColor=default;strokeWidth=3;" parent="1" source="WWopHkoAth9X6F_zSNTi-3" target="WWopHkoAth9X6F_zSNTi-4" edge="1">
          <mxGeometry relative="1" as="geometry" />
        </mxCell>
        <mxCell id="WWopHkoAth9X6F_zSNTi-3" value="&lt;font style=&quot;font-size: 24px;&quot;&gt;&lt;b&gt;Email&amp;nbsp; and Password&lt;/b&gt;&lt;/font&gt;" style="shape=parallelogram;html=1;strokeWidth=3;perimeter=parallelogramPerimeter;whiteSpace=wrap;rounded=1;arcSize=14;size=0.23;strokeColor=#33FFFF;" parent="1" vertex="1">
          <mxGeometry x="350" y="240" width="220" height="70" as="geometry" />
        </mxCell>
        <mxCell id="WWopHkoAth9X6F_zSNTi-5" style="edgeStyle=orthogonalEdgeStyle;rounded=0;orthogonalLoop=1;jettySize=auto;html=1;entryX=1;entryY=0.5;entryDx=0;entryDy=0;strokeWidth=5;" parent="1" source="WWopHkoAth9X6F_zSNTi-4" target="WWopHkoAth9X6F_zSNTi-2" edge="1">
          <mxGeometry relative="1" as="geometry">
            <Array as="points">
              <mxPoint x="680" y="390" />
              <mxPoint x="680" y="160" />
            </Array>
          </mxGeometry>
        </mxCell>
        <mxCell id="WWopHkoAth9X6F_zSNTi-11" value="" style="edgeStyle=orthogonalEdgeStyle;rounded=0;orthogonalLoop=1;jettySize=auto;html=1;fontSize=12;fillColor=default;strokeWidth=3;" parent="1" source="WWopHkoAth9X6F_zSNTi-4" target="WWopHkoAth9X6F_zSNTi-6" edge="1">
          <mxGeometry relative="1" as="geometry">
            <Array as="points">
              <mxPoint x="460" y="460" />
              <mxPoint x="460" y="460" />
            </Array>
          </mxGeometry>
        </mxCell>
        <mxCell id="WWopHkoAth9X6F_zSNTi-4" value="&lt;h1&gt;valid&lt;/h1&gt;" style="strokeWidth=3;html=1;shape=mxgraph.flowchart.decision;whiteSpace=wrap;strokeColor=#33FFFF;rounded=1;arcSize=14;" parent="1" vertex="1">
          <mxGeometry x="405" y="350" width="110" height="80" as="geometry" />
        </mxCell>
        <mxCell id="WWopHkoAth9X6F_zSNTi-12" value="" style="edgeStyle=orthogonalEdgeStyle;rounded=0;orthogonalLoop=1;jettySize=auto;html=1;fontSize=12;fillColor=default;strokeWidth=3;" parent="1" source="WWopHkoAth9X6F_zSNTi-6" target="WWopHkoAth9X6F_zSNTi-7" edge="1">
          <mxGeometry relative="1" as="geometry">
            <Array as="points">
              <mxPoint x="460" y="590" />
              <mxPoint x="460" y="590" />
            </Array>
          </mxGeometry>
        </mxCell>
        <mxCell id="WWopHkoAth9X6F_zSNTi-6" value="&lt;h2&gt;Check profile , Add new product , Delete product , Update product , Validate customer&amp;nbsp; , Manage order and validate payment , Manage costs , Manage delivery person&lt;/h2&gt;" style="rounded=1;whiteSpace=wrap;html=1;absoluteArcSize=1;arcSize=14;strokeWidth=3;strokeColor=#33FFFF;" parent="1" vertex="1">
          <mxGeometry x="150" y="470" width="600" height="100" as="geometry" />
        </mxCell>
        <mxCell id="WWopHkoAth9X6F_zSNTi-7" value="&lt;h1&gt;Logout&lt;/h1&gt;" style="strokeWidth=3;html=1;shape=mxgraph.flowchart.terminator;whiteSpace=wrap;strokeColor=#33FFFF;rounded=1;arcSize=14;" parent="1" vertex="1">
          <mxGeometry x="390" y="630" width="140" height="60" as="geometry" />
        </mxCell>
        <mxCell id="WWopHkoAth9X6F_zSNTi-13" value="&lt;h2&gt;YES&lt;/h2&gt;" style="text;html=1;strokeColor=none;fillColor=none;align=center;verticalAlign=middle;whiteSpace=wrap;rounded=0;" parent="1" vertex="1">
          <mxGeometry x="470" y="430" width="60" height="30" as="geometry" />
        </mxCell>
        <mxCell id="WWopHkoAth9X6F_zSNTi-14" value="&lt;h2&gt;NO&lt;/h2&gt;" style="text;html=1;strokeColor=none;fillColor=none;align=center;verticalAlign=middle;whiteSpace=wrap;rounded=0;" parent="1" vertex="1">
          <mxGeometry x="620" y="260" width="60" height="30" as="geometry" />
        </mxCell>
      </root>
    </mxGraphModel>
  </diagram>
</mxfile>
